<svg width="20" height="20" viewBox="0 0 20 20" xmlns="http://www.w3.org/2000/svg">
<path d="M8.99997 5C10.326 5 11.5978 5.52678 12.5355 6.46447C13.4732 7.40215 14 8.67392 14 10C14 11.3261 13.4732 12.5979 12.5355 13.5355C11.5978 14.4732 10.326 15 8.99997 15C7.67388 15 6.40211 14.4732 5.46443 13.5355C4.52675 12.5979 3.99997 11.3261 3.99997 10C3.99997 8.67392 4.52675 7.40215 5.46443 6.46447C6.40211 5.52678 7.67388 5 8.99997 5V5ZM8.99997 7C8.20432 7 7.44125 7.31607 6.87864 7.87868C6.31604 8.44129 5.99997 9.20435 5.99997 10C5.99997 10.7956 6.31604 11.5587 6.87864 12.1213C7.44125 12.6839 8.20432 13 8.99997 13C9.79562 13 10.5587 12.6839 11.1213 12.1213C11.6839 11.5587 12 10.7956 12 10C12 9.20435 11.6839 8.44129 11.1213 7.87868C10.5587 7.31607 9.79562 7 8.99997 7ZM8.99997 0L11.39 3.42C10.65 3.15 9.83997 3 8.99997 3C8.15997 3 7.34997 3.15 6.60997 3.42L8.99997 0ZM0.339966 5L4.49997 4.65C3.87932 5.17424 3.35187 5.79974 2.93997 6.5C2.49997 7.24 2.24997 8 2.10997 8.79L0.339966 5ZM0.359966 15L2.11997 11.23C2.41392 12.8425 3.25441 14.3045 4.49997 15.37L0.359966 15ZM17.65 5L15.88 8.79C15.5968 7.17076 14.7545 5.70217 13.5 4.64L17.65 5V5ZM17.64 15L13.5 15.36C14.09 14.85 14.62 14.22 15.04 13.5C15.46 12.77 15.73 12 15.87 11.21L17.64 15V15ZM8.99997 20L6.58997 16.56C7.32997 16.83 8.13997 17 8.99997 17C9.81997 17 10.63 16.83 11.37 16.56L8.99997 20Z" fill="currentColor"/>
</svg>