<svg width="158" height="29" viewBox="0 0 158 29" fill="none" xmlns="http://www.w3.org/2000/svg">
	<path d="M111.172 9.216V14.352H117.676V16.932H111.172V24H107.932V6.648H118.876V9.216H111.172ZM124.766 24H121.526V6.648H124.766V24ZM143.519 6.648L136.511 24H133.595L126.587 6.648H129.179C129.459 6.648 129.687 6.716 129.863 6.852C130.039 6.988 130.171 7.164 130.259 7.38L134.351 17.964C134.487 18.308 134.615 18.688 134.735 19.104C134.863 19.512 134.983 19.94 135.095 20.388C135.191 19.94 135.295 19.512 135.407 19.104C135.519 18.688 135.643 18.308 135.779 17.964L139.847 7.38C139.911 7.196 140.035 7.028 140.219 6.876C140.411 6.724 140.643 6.648 140.915 6.648H143.519ZM148.555 9.216V14.028H154.627V16.512H148.555V21.42H156.259V24H145.315V6.648H156.259V9.216H148.555Z" fill="#5AC19B" />
	<path d="M4.524 8.7V14.712H11.592V16.608H4.524V24H2.196V6.804H12.792V8.7H4.524ZM31.9703 15.408C31.9703 16.696 31.7663 17.88 31.3583 18.96C30.9503 20.032 30.3743 20.956 29.6302 21.732C28.8863 22.508 27.9903 23.112 26.9423 23.544C25.9023 23.968 24.7503 24.18 23.4862 24.18C22.2222 24.18 21.0702 23.968 20.0302 23.544C18.9902 23.112 18.0982 22.508 17.3542 21.732C16.6102 20.956 16.0342 20.032 15.6262 18.96C15.2182 17.88 15.0142 16.696 15.0142 15.408C15.0142 14.12 15.2182 12.94 15.6262 11.868C16.0342 10.788 16.6102 9.86 17.3542 9.084C18.0982 8.3 18.9902 7.692 20.0302 7.26C21.0702 6.828 22.2222 6.612 23.4862 6.612C24.7503 6.612 25.9023 6.828 26.9423 7.26C27.9903 7.692 28.8863 8.3 29.6302 9.084C30.3743 9.86 30.9503 10.788 31.3583 11.868C31.7663 12.94 31.9703 14.12 31.9703 15.408ZM29.5823 15.408C29.5823 14.352 29.4383 13.404 29.1503 12.564C28.8623 11.724 28.4543 11.016 27.9263 10.44C27.3983 9.856 26.7583 9.408 26.0062 9.096C25.2543 8.784 24.4143 8.628 23.4862 8.628C22.5663 8.628 21.7303 8.784 20.9782 9.096C20.2262 9.408 19.5822 9.856 19.0462 10.44C18.5182 11.016 18.1102 11.724 17.8222 12.564C17.5342 13.404 17.3902 14.352 17.3902 15.408C17.3902 16.464 17.5342 17.412 17.8222 18.252C18.1102 19.084 18.5182 19.792 19.0462 20.376C19.5822 20.952 20.2262 21.396 20.9782 21.708C21.7303 22.012 22.5663 22.164 23.4862 22.164C24.4143 22.164 25.2543 22.012 26.0062 21.708C26.7583 21.396 27.3983 20.952 27.9263 20.376C28.4543 19.792 28.8623 19.084 29.1503 18.252C29.4383 17.412 29.5823 16.464 29.5823 15.408ZM42.417 22.152C43.129 22.152 43.765 22.032 44.325 21.792C44.885 21.552 45.357 21.216 45.741 20.784C46.133 20.352 46.429 19.836 46.629 19.236C46.837 18.636 46.941 17.976 46.941 17.256V6.804H49.257V17.256C49.257 18.248 49.097 19.168 48.777 20.016C48.465 20.864 48.013 21.6 47.421 22.224C46.837 22.84 46.121 23.324 45.273 23.676C44.425 24.028 43.473 24.204 42.417 24.204C41.361 24.204 40.409 24.028 39.561 23.676C38.713 23.324 37.993 22.84 37.401 22.224C36.809 21.6 36.353 20.864 36.033 20.016C35.721 19.168 35.565 18.248 35.565 17.256V6.804H37.881V17.244C37.881 17.964 37.981 18.624 38.181 19.224C38.389 19.824 38.685 20.34 39.069 20.772C39.461 21.204 39.937 21.544 40.497 21.792C41.065 22.032 41.705 22.152 42.417 22.152ZM58.6734 15.132C59.3454 15.132 59.9374 15.052 60.4494 14.892C60.9694 14.724 61.4014 14.492 61.7454 14.196C62.0974 13.892 62.3614 13.532 62.5374 13.116C62.7134 12.7 62.8014 12.24 62.8014 11.736C62.8014 10.712 62.4654 9.94 61.7934 9.42C61.1214 8.9 60.1134 8.64 58.7694 8.64H56.2254V15.132H58.6734ZM66.6174 24H64.5534C64.1294 24 63.8174 23.836 63.6174 23.508L59.1534 17.364C59.0174 17.172 58.8694 17.036 58.7094 16.956C58.5574 16.868 58.3174 16.824 57.9894 16.824H56.2254V24H53.9094V6.804H58.7694C59.8574 6.804 60.7974 6.916 61.5894 7.14C62.3814 7.356 63.0334 7.672 63.5454 8.088C64.0654 8.504 64.4494 9.008 64.6974 9.6C64.9454 10.184 65.0694 10.84 65.0694 11.568C65.0694 12.176 64.9734 12.744 64.7814 13.272C64.5894 13.8 64.3094 14.276 63.9414 14.7C63.5814 15.116 63.1374 15.472 62.6094 15.768C62.0894 16.064 61.4974 16.288 60.8334 16.44C61.1294 16.608 61.3854 16.852 61.6014 17.172L66.6174 24Z" fill="#F5502A" />
	<path d="M85.48 15.324C85.48 16.596 85.268 17.776 84.844 18.864C84.428 19.944 83.836 20.88 83.068 21.672C82.3 22.464 81.376 23.084 80.296 23.532C79.216 23.972 78.016 24.192 76.696 24.192C75.384 24.192 74.188 23.972 73.108 23.532C72.028 23.084 71.1 22.464 70.324 21.672C69.556 20.88 68.96 19.944 68.536 18.864C68.112 17.776 67.9 16.596 67.9 15.324C67.9 14.052 68.112 12.876 68.536 11.796C68.96 10.708 69.556 9.768 70.324 8.976C71.1 8.184 72.028 7.568 73.108 7.128C74.188 6.68 75.384 6.456 76.696 6.456C77.576 6.456 78.404 6.56 79.18 6.768C79.956 6.968 80.668 7.256 81.316 7.632C81.964 8 82.544 8.452 83.056 8.988C83.576 9.516 84.016 10.108 84.376 10.764C84.736 11.42 85.008 12.132 85.192 12.9C85.384 13.668 85.48 14.476 85.48 15.324ZM82.18 15.324C82.18 14.372 82.052 13.52 81.796 12.768C81.54 12.008 81.176 11.364 80.704 10.836C80.232 10.308 79.656 9.904 78.976 9.624C78.304 9.344 77.544 9.204 76.696 9.204C75.848 9.204 75.084 9.344 74.404 9.624C73.732 9.904 73.156 10.308 72.676 10.836C72.204 11.364 71.84 12.008 71.584 12.768C71.328 13.52 71.2 14.372 71.2 15.324C71.2 16.276 71.328 17.132 71.584 17.892C71.84 18.644 72.204 19.284 72.676 19.812C73.156 20.332 73.732 20.732 74.404 21.012C75.084 21.292 75.848 21.432 76.696 21.432C77.544 21.432 78.304 21.292 78.976 21.012C79.656 20.732 80.232 20.332 80.704 19.812C81.176 19.284 81.54 18.644 81.796 17.892C82.052 17.132 82.18 16.276 82.18 15.324Z" fill="white" />
	<path d="M103.423 6.648V24H101.767C101.511 24 101.295 23.96 101.119 23.88C100.951 23.792 100.787 23.648 100.627 23.448L91.5668 11.88C91.6148 12.408 91.6388 12.896 91.6388 13.344V24H88.7948V6.648H90.4868C90.6228 6.648 90.7388 6.656 90.8348 6.672C90.9388 6.68 91.0268 6.704 91.0988 6.744C91.1788 6.776 91.2548 6.828 91.3268 6.9C91.3988 6.964 91.4788 7.052 91.5668 7.164L100.663 18.78C100.639 18.5 100.619 18.224 100.603 17.952C100.587 17.68 100.579 17.428 100.579 17.196V6.648H103.423Z" fill="#5AC19B" />
	<line x1="77.4056" y1="2.06656" x2="75.5919" y2="28.0032" stroke="white" />
</svg>
