<svg width="91" height="53" viewBox="0 0 91 53" fill="none" xmlns="http://www.w3.org/2000/svg">
	<path d="M4.524 8.7V14.712H11.592V16.608H4.524V24H2.196V6.804H12.792V8.7H4.524ZM31.9703 15.408C31.9703 16.696 31.7663 17.88 31.3583 18.96C30.9503 20.032 30.3743 20.956 29.6302 21.732C28.8863 22.508 27.9903 23.112 26.9423 23.544C25.9023 23.968 24.7503 24.18 23.4862 24.18C22.2222 24.18 21.0702 23.968 20.0302 23.544C18.9902 23.112 18.0982 22.508 17.3542 21.732C16.6102 20.956 16.0342 20.032 15.6262 18.96C15.2182 17.88 15.0142 16.696 15.0142 15.408C15.0142 14.12 15.2182 12.94 15.6262 11.868C16.0342 10.788 16.6102 9.86 17.3542 9.084C18.0982 8.3 18.9902 7.692 20.0302 7.26C21.0702 6.828 22.2222 6.612 23.4862 6.612C24.7503 6.612 25.9023 6.828 26.9423 7.26C27.9903 7.692 28.8863 8.3 29.6302 9.084C30.3743 9.86 30.9503 10.788 31.3583 11.868C31.7663 12.94 31.9703 14.12 31.9703 15.408ZM29.5823 15.408C29.5823 14.352 29.4383 13.404 29.1503 12.564C28.8623 11.724 28.4543 11.016 27.9263 10.44C27.3983 9.856 26.7583 9.408 26.0062 9.096C25.2543 8.784 24.4143 8.628 23.4862 8.628C22.5663 8.628 21.7303 8.784 20.9782 9.096C20.2262 9.408 19.5822 9.856 19.0462 10.44C18.5182 11.016 18.1102 11.724 17.8222 12.564C17.5342 13.404 17.3902 14.352 17.3902 15.408C17.3902 16.464 17.5342 17.412 17.8222 18.252C18.1102 19.084 18.5182 19.792 19.0462 20.376C19.5822 20.952 20.2262 21.396 20.9782 21.708C21.7303 22.012 22.5663 22.164 23.4862 22.164C24.4143 22.164 25.2543 22.012 26.0062 21.708C26.7583 21.396 27.3983 20.952 27.9263 20.376C28.4543 19.792 28.8623 19.084 29.1503 18.252C29.4383 17.412 29.5823 16.464 29.5823 15.408ZM42.417 22.152C43.129 22.152 43.765 22.032 44.325 21.792C44.885 21.552 45.357 21.216 45.741 20.784C46.133 20.352 46.429 19.836 46.629 19.236C46.837 18.636 46.941 17.976 46.941 17.256V6.804H49.257V17.256C49.257 18.248 49.097 19.168 48.777 20.016C48.465 20.864 48.013 21.6 47.421 22.224C46.837 22.84 46.121 23.324 45.273 23.676C44.425 24.028 43.473 24.204 42.417 24.204C41.361 24.204 40.409 24.028 39.561 23.676C38.713 23.324 37.993 22.84 37.401 22.224C36.809 21.6 36.353 20.864 36.033 20.016C35.721 19.168 35.565 18.248 35.565 17.256V6.804H37.881V17.244C37.881 17.964 37.981 18.624 38.181 19.224C38.389 19.824 38.685 20.34 39.069 20.772C39.461 21.204 39.937 21.544 40.497 21.792C41.065 22.032 41.705 22.152 42.417 22.152ZM58.6734 15.132C59.3454 15.132 59.9374 15.052 60.4494 14.892C60.9694 14.724 61.4014 14.492 61.7454 14.196C62.0974 13.892 62.3614 13.532 62.5374 13.116C62.7134 12.7 62.8014 12.24 62.8014 11.736C62.8014 10.712 62.4654 9.94 61.7934 9.42C61.1214 8.9 60.1134 8.64 58.7694 8.64H56.2254V15.132H58.6734ZM66.6174 24H64.5534C64.1294 24 63.8174 23.836 63.6174 23.508L59.1534 17.364C59.0174 17.172 58.8694 17.036 58.7094 16.956C58.5574 16.868 58.3174 16.824 57.9894 16.824H56.2254V24H53.9094V6.804H58.7694C59.8574 6.804 60.7974 6.916 61.5894 7.14C62.3814 7.356 63.0334 7.672 63.5454 8.088C64.0654 8.504 64.4494 9.008 64.6974 9.6C64.9454 10.184 65.0694 10.84 65.0694 11.568C65.0694 12.176 64.9734 12.744 64.7814 13.272C64.5894 13.8 64.3094 14.276 63.9414 14.7C63.5814 15.116 63.1374 15.472 62.6094 15.768C62.0894 16.064 61.4974 16.288 60.8334 16.44C61.1294 16.608 61.3854 16.852 61.6014 17.172L66.6174 24Z" fill="#F5502A" />
	<path d="M44.172 33.216V38.352H50.676V40.932H44.172V48H40.932V30.648H51.876V33.216H44.172ZM57.7658 48H54.5258V30.648H57.7658V48ZM76.5188 30.648L69.5108 48H66.5948L59.5867 30.648H62.1788C62.4588 30.648 62.6868 30.716 62.8628 30.852C63.0388 30.988 63.1708 31.164 63.2588 31.38L67.3508 41.964C67.4868 42.308 67.6148 42.688 67.7348 43.104C67.8628 43.512 67.9828 43.94 68.0948 44.388C68.1908 43.94 68.2948 43.512 68.4068 43.104C68.5188 42.688 68.6428 42.308 68.7788 41.964L72.8468 31.38C72.9108 31.196 73.0347 31.028 73.2188 30.876C73.4108 30.724 73.6428 30.648 73.9148 30.648H76.5188ZM81.5548 33.216V38.028H87.6268V40.512H81.5548V45.42H89.2588V48H78.3148V30.648H89.2588V33.216H81.5548Z" fill="#5AC19B" />
	<path d="M18.48 39.324C18.48 40.596 18.268 41.776 17.844 42.864C17.428 43.944 16.836 44.88 16.068 45.672C15.3 46.464 14.376 47.084 13.296 47.532C12.216 47.972 11.016 48.192 9.696 48.192C8.384 48.192 7.188 47.972 6.108 47.532C5.028 47.084 4.1 46.464 3.324 45.672C2.556 44.88 1.96 43.944 1.536 42.864C1.112 41.776 0.9 40.596 0.9 39.324C0.9 38.052 1.112 36.876 1.536 35.796C1.96 34.708 2.556 33.768 3.324 32.976C4.1 32.184 5.028 31.568 6.108 31.128C7.188 30.68 8.384 30.456 9.696 30.456C10.576 30.456 11.404 30.56 12.18 30.768C12.956 30.968 13.668 31.256 14.316 31.632C14.964 32 15.544 32.452 16.056 32.988C16.576 33.516 17.016 34.108 17.376 34.764C17.736 35.42 18.008 36.132 18.192 36.9C18.384 37.668 18.48 38.476 18.48 39.324ZM15.18 39.324C15.18 38.372 15.052 37.52 14.796 36.768C14.54 36.008 14.176 35.364 13.704 34.836C13.232 34.308 12.656 33.904 11.976 33.624C11.304 33.344 10.544 33.204 9.696 33.204C8.848 33.204 8.084 33.344 7.404 33.624C6.732 33.904 6.156 34.308 5.676 34.836C5.204 35.364 4.84 36.008 4.584 36.768C4.328 37.52 4.2 38.372 4.2 39.324C4.2 40.276 4.328 41.132 4.584 41.892C4.84 42.644 5.204 43.284 5.676 43.812C6.156 44.332 6.732 44.732 7.404 45.012C8.084 45.292 8.848 45.432 9.696 45.432C10.544 45.432 11.304 45.292 11.976 45.012C12.656 44.732 13.232 44.332 13.704 43.812C14.176 43.284 14.54 42.644 14.796 41.892C15.052 41.132 15.18 40.276 15.18 39.324Z" fill="white" />
	<path d="M36.4228 30.648V48H34.7668C34.5108 48 34.2948 47.96 34.1188 47.88C33.9508 47.792 33.7868 47.648 33.6268 47.448L24.5668 35.88C24.6148 36.408 24.6388 36.896 24.6388 37.344V48H21.7948V30.648H23.4868C23.6228 30.648 23.7388 30.656 23.8348 30.672C23.9388 30.68 24.0268 30.704 24.0988 30.744C24.1788 30.776 24.2548 30.828 24.3268 30.9C24.3988 30.964 24.4788 31.052 24.5668 31.164L33.6628 42.78C33.6388 42.5 33.6188 42.224 33.6028 41.952C33.5868 41.68 33.5788 41.428 33.5788 41.196V30.648H36.4228Z" fill="#5AC19B" />
	<line x1="10.4056" y1="26.0666" x2="8.59197" y2="52.0033" stroke="white" />
</svg>
