<svg width="24" height="24" viewBox="1 1 24 24" xmlns="http://www.w3.org/2000/svg">
	<path d="M4.48529 21.3697C-0.207075 16.6802 -0.207075 9.09895 4.48529 4.40944C9.17766 -0.280061 16.7635 -0.280061 21.4559 4.40944C26.1482 9.09895 26.1482 16.6802 21.4559 21.3697C16.7635 26.0592 9.17766 26.0592 4.48529 21.3697ZM19.0715 14.0853C19.7333 14.0853 20.2679 13.551 20.2679 12.8896C20.2594 12.2366 19.7163 11.6939 19.0715 11.6939L14.1669 11.6939V6.79237C14.1669 6.13092 13.6324 5.59667 12.9705 5.59667C12.3087 5.59667 11.7741 6.13092 11.7741 6.79237V11.6939H6.86957C6.20771 11.6939 5.67314 12.2281 5.67314 12.8896C5.67278 13.2068 5.79872 13.5111 6.02317 13.7354C6.24762 13.9598 6.55215 14.0856 6.86957 14.0853L11.7741 14.0853L11.7741 18.9868C11.7737 19.304 11.8997 19.6083 12.1241 19.8326C12.3486 20.0569 12.6531 20.1828 12.9705 20.1825C13.6324 20.1825 14.1669 19.6482 14.1669 18.9868V14.0853L19.0715 14.0853Z" fill="currentColor" />
</svg>