<svg width="22" height="24" viewBox="0 1 22 24" xmlns="http://www.w3.org/2000/svg">
	<path fill-rule="evenodd" clip-rule="evenodd" d="M19.2 3.26203H18V2.06276C18 1.40317 17.46 0.863495 16.8 0.863495C16.14 0.863495 15.6 1.40317 15.6 2.06276V3.26203H5.99999V2.06276C5.99999 1.40317 5.45999 0.863495 4.79999 0.863495C4.14 0.863495 3.6 1.40317 3.6 2.06276V3.26203H2.4C1.068 3.26203 0.012 4.34137 0.012 5.66057L0 22.4503C0 23.7695 1.068 24.8489 2.4 24.8489H19.2C20.52 24.8489 21.6 23.7695 21.6 22.4503V5.66057C21.6 4.34137 20.52 3.26203 19.2 3.26203ZM19.2 21.2511C19.2 21.9107 18.66 22.4503 18 22.4503H3.60002C2.94002 22.4503 2.40002 21.9107 2.40002 21.2511V9.25836H19.2V21.2511ZM7.19995 11.6569H4.80005V14.0555H7.19995V11.6569ZM9.59998 11.6569H12V14.0555H9.59998V11.6569ZM16.8 11.6569H14.4V14.0555H16.8V11.6569Z" fill="currentColor" />
</svg>
