<svg width="24" height="25" viewBox="0 0 24 25" fill="none" xmlns="http://www.w3.org/2000/svg">
<path d="M12 0.76355C5.376 0.76355 0 6.13628 0 12.7562C0 19.3762 5.376 24.7489 12 24.7489C18.624 24.7489 24 19.3762 24 12.7562C24 6.13628 18.624 0.76355 12 0.76355ZM12 22.3504C6.70801 22.3504 2.40002 18.045 2.40002 12.7562C2.40002 7.46746 6.70801 3.16208 12 3.16208C17.292 3.16208 21.6 7.46746 21.6 12.7562C21.6 18.045 17.292 22.3504 12 22.3504ZM9.6 15.3587L16.656 8.30696C17.1239 7.83925 17.8919 7.83925 18.3599 8.30696C18.8279 8.77468 18.8279 9.53022 18.3599 9.99793L10.452 17.9011C9.98399 18.3688 9.228 18.3688 8.76 17.9011L5.65202 14.795C5.18403 14.3273 5.18403 13.5717 5.65202 13.104C5.87622 12.8795 6.1806 12.7533 6.49802 12.7533C6.81544 12.7533 7.11982 12.8795 7.34401 13.104L9.6 15.3587Z" fill="currentColor"/>
</svg>
