<svg width="20" height="20" viewBox="-2 0 20 20" xmlns="http://www.w3.org/2000/svg">
<path d="M0 7.93449C0 3.96157 3.2152 0.748322 7.19055 0.748322C11.1659 0.748322 14.3811 3.96157 14.3811 7.93449C14.3811 12.2154 9.84078 18.1183 7.98151 20.3666C7.57062 20.8593 6.82075 20.8593 6.40986 20.3666C4.54032 18.1183 0 12.2154 0 7.93449ZM4.6225 7.93451C4.6225 9.35122 5.77299 10.501 7.19055 10.501C8.60812 10.501 9.75861 9.35122 9.75861 7.93451C9.75861 6.5178 8.60812 5.36801 7.19055 5.36801C5.77299 5.36801 4.6225 6.5178 4.6225 7.93451Z" fill="currentColor"/>
</svg>
