<svg width="20" height="20" viewBox="0 0 20 20" xmlns="http://www.w3.org/2000/svg">
<path d="M15 5.74527C15 8.50608 12.7625 10.7422 10 10.7422C7.2375 10.7422 5 8.50608 5 5.74527C5 2.98446 7.2375 0.748322 10 0.748322C12.7625 0.748322 15 2.98446 15 5.74527ZM12.5 5.74529C12.5 4.37112 11.375 3.2468 10 3.2468C8.625 3.2468 7.5 4.37112 7.5 5.74529C7.5 7.11945 8.625 8.24377 10 8.24377C11.375 8.24377 12.5 7.11945 12.5 5.74529ZM10 11.9915C6.6625 11.9915 0 13.6655 0 16.9884V19.4869C0 20.174 0.5625 20.7361 1.25 20.7361H18.75C19.4375 20.7361 20 20.174 20 19.4869V16.9884C20 13.6655 13.3375 11.9915 10 11.9915ZM2.5 17.0009V18.2377H17.5V16.9884C17.25 16.1015 13.375 14.4899 10 14.4899C6.625 14.4899 2.75 16.1015 2.5 17.0009Z" fill="currentColor"/>
</svg>
