<svg width="35" height="24" viewBox="0 0 35 24" xmlns="http://www.w3.org/2000/svg">
	<path fill-rule="evenodd" clip-rule="evenodd" d="M17.1257 5.14286C17.1257 7.98857 14.8457 10.2857 12 10.2857C9.1543 10.2857 6.85715 7.98857 6.85715 5.14286C6.85715 2.29714 9.1543 0 12 0C14.8457 0 17.1257 2.29714 17.1257 5.14286ZM29.1257 7.71429C29.1257 10.08 27.2229 12 24.8571 12C22.4914 12 20.5714 10.08 20.5714 7.71429C20.5714 5.34858 22.4914 3.42858 24.8571 3.42858C27.2229 3.42858 29.1257 5.34858 29.1257 7.71429ZM24.8571 15.4286C21.72 15.4286 15.4286 17.0057 15.4286 20.1429V22.2857C15.4286 23.2286 16.2 24 17.1429 24H32.5714C33.5143 24 34.2857 23.2286 34.2857 22.2857V20.1429C34.2857 17.0057 27.9943 15.4286 24.8571 15.4286ZM0 19.7143C0 15.72 8.00571 13.7143 12 13.7143C13.1314 13.7143 14.5714 13.8857 16.0629 14.1943C12.5657 16.1314 12 18.6857 12 20.1428V24H1.71429C0.771429 24 0 23.2286 0 22.2857V19.7143Z" fill="currentColor" />
</svg>
