<svg width="20" height="20" viewBox="0 1 20 20" xmlns="http://www.w3.org/2000/svg">
<path d="M9.99 0.748322C4.47 0.748322 0 5.22559 0 10.7422C0 16.2589 4.47 20.7361 9.99 20.7361C15.52 20.7361 20 16.2589 20 10.7422C20 5.22559 15.52 0.748322 9.99 0.748322ZM10 18.7374C5.58 18.7374 2 15.1595 2 10.7422C2 6.32492 5.58 2.7471 10 2.7471C14.42 2.7471 18 6.32492 18 10.7422C18 15.1595 14.42 18.7374 10 18.7374ZM9.72 5.74527H9.78C10.18 5.74527 10.5 6.06507 10.5 6.46483V11.0021L14.37 13.3007C14.72 13.5005 14.83 13.9503 14.62 14.2901C14.42 14.6299 13.98 14.7298 13.64 14.5299L9.49 12.0414C9.18 11.8615 9 11.5317 9 11.182V6.46483C9 6.06507 9.32 5.74527 9.72 5.74527Z" fill="currentColor"/>
</svg>
